# xmcd
#
# Track frame offsets:
#	300
#	19170
#	33610
#	47620
#	58783
#	75445
#	95973
#	106465
#	120573
#	136268
#	155695
#	177280
#	191473
#	208130
#	225755
#	239750
#	254168
#	270103
#	285948
#	300143
#	324388
#	337420
#
# Disc length: 4708 seconds
#
# Revision: 3
# Processed by: cddbd v1.5.1PL0 Copyright (c) Steve Scherf et al.
# Submitted via: MusicWizard 7.0.2
#
DISCID=36126016
DTITLE=Kris Kristofferson - The Legendary Years
DYEAR=1990
DGENRE=Country
TTITLE0=Me and Bobby McGee
TTITLE1=Josie
TTITLE2=Lover Please (With Rita Coolidge)
TTITLE3=Jesus Was A Capricorn
TTITLE4=Magdalene
TTITLE5=Living Legend
TTITLE6=Help Me Make It Through The Night
TTITLE7=Smokey Put The Sweat On Me
TTITLE8=Why Me?
TTITLE9=Silver Tongued Devil
TTITLE10=When She's Wrong
TTITLE11=I May Smoke Too Much
TTITLE12=Easter Island
TTITLE13=It's Never Gonna Be The Same Again
TTITLE14=The Golden Idol
TTITLE15=I'd Rather Be Sorry (With Rita Coolidge)
TTITLE16=The Bigger The Fool
TTITLE17=Shake Hands With The Devil
TTITLE18=Nobody Loves Anybody Anymore
TTITLE19=Broken Freedom Song
TTITLE20=Here Comes That Rainbow Again
TTITLE21=Epitaph (Black And Blue)
EXTD=(c)1990 Monument - CBS UK
EXTT0=
EXTT1=
EXTT2=
EXTT3=
EXTT4=
EXTT5=
EXTT6=
EXTT7=
EXTT8=
EXTT9=
EXTT10=
EXTT11=
EXTT12=
EXTT13=
EXTT14=
EXTT15=
EXTT16=
EXTT17=
EXTT18=
EXTT19=
EXTT20=
EXTT21=
PLAYORDER=
